<svg id="a376106b-0bdd-47c3-b9bd-e6a9225bb012" data-name="Слой 1" xmlns="http://www.w3.org/2000/svg" viewBox="0 0 140.8 48">
  <defs>
    <style>
      .a1b0ab80-db06-4256-9aeb-88d05df9e6f2 {
        fill: #6654d9;
      }

      .ef671117-3efd-4ebf-8f7d-9dc3b721d0e2 {
        fill: none;
        stroke: #6654d9;
        stroke-miterlimit: 10;
        stroke-width: 3px;
      }
    </style>
  </defs>
  <g>
    <path class="a1b0ab80-db06-4256-9aeb-88d05df9e6f2" d="M10.3,31,6.6,42.2H1.8L13.9,6.6h5.5L31.6,42.2H26.7L22.9,31Zm11.6-3.6L18.4,17.2c-.8-2.4-1.3-4.5-1.8-6.5h-.1c-.6,2.1-1.1,4.3-1.8,6.4L11.2,27.4Z" transform="translate(-1.8)"/>
    <path class="a1b0ab80-db06-4256-9aeb-88d05df9e6f2" d="M36.8,6.6h4.6V38.3H56.6v3.9H36.8Z" transform="translate(-1.8)"/>
    <path class="a1b0ab80-db06-4256-9aeb-88d05df9e6f2" d="M63.8,10.5H53V6.6H79.3v3.9H68.5V42.2H63.8Z" transform="translate(-1.8)"/>
    <path class="a1b0ab80-db06-4256-9aeb-88d05df9e6f2" d="M94.5,6.6h19.1v3.9H99.1V22.3h13.4v3.8H99.1V42.2H94.5Z" transform="translate(-1.8)"/>
    <path class="a1b0ab80-db06-4256-9aeb-88d05df9e6f2" d="M132.9,42.2V32.8h-16v-3L132.3,7.9h5V29.2h4.8v3.6h-4.8v9.4Zm0-13V17.7c0-1.7,0-3.5.1-5.3h-.1c-1.1,2-1.9,3.4-2.9,5l-8.4,11.7h11.3Z" transform="translate(-1.8)"/>
  </g>
  <rect class="ef671117-3efd-4ebf-8f7d-9dc3b721d0e2" x="91.2" y="1.5" width="48.1" height="45"/>
</svg>
